<mxfile host="app.diagrams.net" agent="Mozilla/5.0 (X11; Linux x86_64) AppleWebKit/537.36 (KHTML, like Gecko) Chrome/137.0.0.0 Safari/537.36" version="28.0.4">
  <diagram name="Page-1" id="llaOpPtb0LD6KC5coQAi">
    <mxGraphModel grid="1" page="1" gridSize="10" guides="1" tooltips="1" connect="1" arrows="1" fold="1" pageScale="1" pageWidth="980" pageHeight="690" math="0" shadow="0">
      <root>
        <mxCell id="0" />
        <mxCell id="1" parent="0" />
        <mxCell id="hHeZnDOVjVbNeXcuj5v2-8" value="&lt;div&gt;HistorialViajes&lt;/div&gt;" style="html=1;whiteSpace=wrap;" vertex="1" parent="1">
          <mxGeometry x="1801" y="417" width="110" height="50" as="geometry" />
        </mxCell>
        <mxCell id="hHeZnDOVjVbNeXcuj5v2-9" value="ZonaTrabajo" style="html=1;whiteSpace=wrap;" vertex="1" parent="1">
          <mxGeometry x="1651" y="417" width="110" height="50" as="geometry" />
        </mxCell>
        <mxCell id="hHeZnDOVjVbNeXcuj5v2-83" style="edgeStyle=orthogonalEdgeStyle;rounded=0;orthogonalLoop=1;jettySize=auto;html=1;exitX=0.25;exitY=1;exitDx=0;exitDy=0;" edge="1" parent="1" source="hHeZnDOVjVbNeXcuj5v2-84">
          <mxGeometry relative="1" as="geometry">
            <mxPoint x="1080" y="710" as="targetPoint" />
          </mxGeometry>
        </mxCell>
        <mxCell id="hHeZnDOVjVbNeXcuj5v2-115" style="edgeStyle=orthogonalEdgeStyle;rounded=0;orthogonalLoop=1;jettySize=auto;html=1;exitX=0;exitY=0.5;exitDx=0;exitDy=0;entryX=0.5;entryY=0;entryDx=0;entryDy=0;" edge="1" parent="1" source="hHeZnDOVjVbNeXcuj5v2-11" target="hHeZnDOVjVbNeXcuj5v2-117">
          <mxGeometry relative="1" as="geometry">
            <mxPoint x="792.5" y="660" as="targetPoint" />
          </mxGeometry>
        </mxCell>
        <mxCell id="hHeZnDOVjVbNeXcuj5v2-11" value="Viaje" style="html=1;whiteSpace=wrap;fillColor=light-dark(#FFFFFF,#66B2FF);strokeColor=light-dark(#000000,#004C99);fontColor=light-dark(#000000,#000000);" vertex="1" parent="1">
          <mxGeometry x="970" y="420" width="454" height="122" as="geometry" />
        </mxCell>
        <mxCell id="hHeZnDOVjVbNeXcuj5v2-96" style="edgeStyle=orthogonalEdgeStyle;rounded=0;orthogonalLoop=1;jettySize=auto;html=1;endArrow=diamondThin;endFill=0;" edge="1" parent="1" source="hHeZnDOVjVbNeXcuj5v2-17" target="hHeZnDOVjVbNeXcuj5v2-11">
          <mxGeometry relative="1" as="geometry" />
        </mxCell>
        <mxCell id="hHeZnDOVjVbNeXcuj5v2-100" style="edgeStyle=orthogonalEdgeStyle;rounded=0;orthogonalLoop=1;jettySize=auto;html=1;entryX=0.5;entryY=0;entryDx=0;entryDy=0;exitX=0;exitY=0.5;exitDx=0;exitDy=0;" edge="1" parent="1" source="hHeZnDOVjVbNeXcuj5v2-17" target="hHeZnDOVjVbNeXcuj5v2-99">
          <mxGeometry relative="1" as="geometry">
            <mxPoint x="930" y="177" as="sourcePoint" />
          </mxGeometry>
        </mxCell>
        <mxCell id="hHeZnDOVjVbNeXcuj5v2-17" value="Pasajero" style="html=1;whiteSpace=wrap;" vertex="1" parent="1">
          <mxGeometry x="1060" y="217" width="110" height="50" as="geometry" />
        </mxCell>
        <mxCell id="hHeZnDOVjVbNeXcuj5v2-18" style="edgeStyle=orthogonalEdgeStyle;rounded=0;orthogonalLoop=1;jettySize=auto;html=1;exitX=1;exitY=0.25;exitDx=0;exitDy=0;entryX=0.5;entryY=0;entryDx=0;entryDy=0;endArrow=none;endFill=1;startArrow=diamondThin;startFill=0;" edge="1" parent="1" source="hHeZnDOVjVbNeXcuj5v2-22" target="hHeZnDOVjVbNeXcuj5v2-36">
          <mxGeometry relative="1" as="geometry" />
        </mxCell>
        <mxCell id="hHeZnDOVjVbNeXcuj5v2-19" style="edgeStyle=orthogonalEdgeStyle;rounded=0;orthogonalLoop=1;jettySize=auto;html=1;exitX=1;exitY=0.5;exitDx=0;exitDy=0;entryX=0.5;entryY=0;entryDx=0;entryDy=0;endArrow=none;endFill=1;startFill=1;startArrow=diamondThin;" edge="1" parent="1" source="hHeZnDOVjVbNeXcuj5v2-22" target="hHeZnDOVjVbNeXcuj5v2-8">
          <mxGeometry relative="1" as="geometry" />
        </mxCell>
        <mxCell id="hHeZnDOVjVbNeXcuj5v2-20" style="edgeStyle=orthogonalEdgeStyle;rounded=0;orthogonalLoop=1;jettySize=auto;html=1;exitX=1;exitY=0.75;exitDx=0;exitDy=0;endArrow=none;startFill=1;startArrow=diamondThin;" edge="1" parent="1" source="hHeZnDOVjVbNeXcuj5v2-22" target="hHeZnDOVjVbNeXcuj5v2-9">
          <mxGeometry relative="1" as="geometry" />
        </mxCell>
        <mxCell id="hHeZnDOVjVbNeXcuj5v2-21" style="edgeStyle=orthogonalEdgeStyle;rounded=0;orthogonalLoop=1;jettySize=auto;html=1;entryX=1;entryY=0.5;entryDx=0;entryDy=0;endArrow=diamondThin;endFill=0;" edge="1" parent="1" source="hHeZnDOVjVbNeXcuj5v2-22" target="hHeZnDOVjVbNeXcuj5v2-11">
          <mxGeometry relative="1" as="geometry" />
        </mxCell>
        <mxCell id="hHeZnDOVjVbNeXcuj5v2-22" value="Chofer" style="html=1;whiteSpace=wrap;" vertex="1" parent="1">
          <mxGeometry x="1516" y="267" width="110" height="50" as="geometry" />
        </mxCell>
        <mxCell id="hHeZnDOVjVbNeXcuj5v2-36" value="Status" style="html=1;whiteSpace=wrap;" vertex="1" parent="1">
          <mxGeometry x="1951" y="420" width="110" height="50" as="geometry" />
        </mxCell>
        <mxCell id="hHeZnDOVjVbNeXcuj5v2-39" style="edgeStyle=orthogonalEdgeStyle;rounded=0;orthogonalLoop=1;jettySize=auto;html=1;exitX=0.5;exitY=0;exitDx=0;exitDy=0;entryX=0.5;entryY=1;entryDx=0;entryDy=0;endArrow=diamondThin;endFill=1;" edge="1" parent="1" source="hHeZnDOVjVbNeXcuj5v2-41" target="hHeZnDOVjVbNeXcuj5v2-11">
          <mxGeometry relative="1" as="geometry" />
        </mxCell>
        <mxCell id="hHeZnDOVjVbNeXcuj5v2-81" style="edgeStyle=orthogonalEdgeStyle;rounded=0;orthogonalLoop=1;jettySize=auto;html=1;entryX=0.5;entryY=0;entryDx=0;entryDy=0;endArrow=none;endFill=0;" edge="1" parent="1" source="hHeZnDOVjVbNeXcuj5v2-41" target="hHeZnDOVjVbNeXcuj5v2-80">
          <mxGeometry relative="1" as="geometry" />
        </mxCell>
        <mxCell id="hHeZnDOVjVbNeXcuj5v2-41" value="EstadoViaje" style="html=1;whiteSpace=wrap;" vertex="1" parent="1">
          <mxGeometry x="1415" y="650" width="110" height="50" as="geometry" />
        </mxCell>
        <mxCell id="hHeZnDOVjVbNeXcuj5v2-45" value="1" style="text;html=1;align=center;verticalAlign=middle;resizable=0;points=[];autosize=1;strokeColor=none;fillColor=none;" vertex="1" parent="1">
          <mxGeometry x="1200" y="542" width="30" height="30" as="geometry" />
        </mxCell>
        <mxCell id="hHeZnDOVjVbNeXcuj5v2-70" value="1" style="text;html=1;align=center;verticalAlign=middle;resizable=0;points=[];autosize=1;strokeColor=none;fillColor=none;" vertex="1" parent="1">
          <mxGeometry x="1200" y="390" width="30" height="30" as="geometry" />
        </mxCell>
        <mxCell id="hHeZnDOVjVbNeXcuj5v2-71" value="1" style="text;html=1;align=center;verticalAlign=middle;resizable=0;points=[];autosize=1;strokeColor=none;fillColor=none;" vertex="1" parent="1">
          <mxGeometry x="1489" y="265" width="30" height="30" as="geometry" />
        </mxCell>
        <mxCell id="hHeZnDOVjVbNeXcuj5v2-72" value="*" style="text;html=1;align=center;verticalAlign=middle;resizable=0;points=[];autosize=1;strokeColor=none;fillColor=none;" vertex="1" parent="1">
          <mxGeometry x="1424" y="480" width="30" height="30" as="geometry" />
        </mxCell>
        <mxCell id="hHeZnDOVjVbNeXcuj5v2-73" value="1" style="text;html=1;align=center;verticalAlign=middle;resizable=0;points=[];autosize=1;strokeColor=none;fillColor=none;" vertex="1" parent="1">
          <mxGeometry x="1626" y="305" width="30" height="30" as="geometry" />
        </mxCell>
        <mxCell id="hHeZnDOVjVbNeXcuj5v2-74" value="1" style="text;html=1;align=center;verticalAlign=middle;resizable=0;points=[];autosize=1;strokeColor=none;fillColor=none;" vertex="1" parent="1">
          <mxGeometry x="1670" y="390" width="30" height="30" as="geometry" />
        </mxCell>
        <mxCell id="hHeZnDOVjVbNeXcuj5v2-75" value="1" style="text;html=1;align=center;verticalAlign=middle;resizable=0;points=[];autosize=1;strokeColor=none;fillColor=none;" vertex="1" parent="1">
          <mxGeometry x="1830" y="305" width="30" height="30" as="geometry" />
        </mxCell>
        <mxCell id="hHeZnDOVjVbNeXcuj5v2-76" value="1" style="text;html=1;align=center;verticalAlign=middle;resizable=0;points=[];autosize=1;strokeColor=none;fillColor=none;" vertex="1" parent="1">
          <mxGeometry x="1830" y="390" width="30" height="30" as="geometry" />
        </mxCell>
        <mxCell id="hHeZnDOVjVbNeXcuj5v2-77" value="1" style="text;html=1;align=center;verticalAlign=middle;resizable=0;points=[];autosize=1;strokeColor=none;fillColor=none;" vertex="1" parent="1">
          <mxGeometry x="1980" y="305" width="30" height="30" as="geometry" />
        </mxCell>
        <mxCell id="hHeZnDOVjVbNeXcuj5v2-78" value="1" style="text;html=1;align=center;verticalAlign=middle;resizable=0;points=[];autosize=1;strokeColor=none;fillColor=none;" vertex="1" parent="1">
          <mxGeometry x="1980" y="392" width="30" height="30" as="geometry" />
        </mxCell>
        <mxCell id="hHeZnDOVjVbNeXcuj5v2-79" value="1" style="text;html=1;align=center;verticalAlign=middle;resizable=0;points=[];autosize=1;strokeColor=none;fillColor=none;" vertex="1" parent="1">
          <mxGeometry x="1470" y="620" width="30" height="30" as="geometry" />
        </mxCell>
        <mxCell id="hHeZnDOVjVbNeXcuj5v2-80" value="Seguimiento" style="html=1;whiteSpace=wrap;" vertex="1" parent="1">
          <mxGeometry x="1415" y="800" width="110" height="50" as="geometry" />
        </mxCell>
        <mxCell id="hHeZnDOVjVbNeXcuj5v2-85" value="" style="edgeStyle=orthogonalEdgeStyle;rounded=0;orthogonalLoop=1;jettySize=auto;html=1;exitX=0.25;exitY=1;exitDx=0;exitDy=0;endArrow=none;endFill=0;" edge="1" parent="1" source="hHeZnDOVjVbNeXcuj5v2-11" target="hHeZnDOVjVbNeXcuj5v2-84">
          <mxGeometry relative="1" as="geometry">
            <mxPoint x="1080" y="710" as="targetPoint" />
            <mxPoint x="1289" y="482" as="sourcePoint" />
          </mxGeometry>
        </mxCell>
        <mxCell id="hHeZnDOVjVbNeXcuj5v2-84" value="Pago" style="html=1;whiteSpace=wrap;" vertex="1" parent="1">
          <mxGeometry x="1040" y="680" width="110" height="50" as="geometry" />
        </mxCell>
        <mxCell id="hHeZnDOVjVbNeXcuj5v2-89" style="edgeStyle=orthogonalEdgeStyle;rounded=0;orthogonalLoop=1;jettySize=auto;html=1;entryX=0.25;entryY=1;entryDx=0;entryDy=0;endArrow=block;endFill=0;" edge="1" parent="1" source="hHeZnDOVjVbNeXcuj5v2-86" target="hHeZnDOVjVbNeXcuj5v2-84">
          <mxGeometry relative="1" as="geometry" />
        </mxCell>
        <mxCell id="hHeZnDOVjVbNeXcuj5v2-86" value="Efectivo" style="html=1;whiteSpace=wrap;" vertex="1" parent="1">
          <mxGeometry x="950" y="800" width="110" height="50" as="geometry" />
        </mxCell>
        <mxCell id="hHeZnDOVjVbNeXcuj5v2-90" style="edgeStyle=orthogonalEdgeStyle;rounded=0;orthogonalLoop=1;jettySize=auto;html=1;exitX=0.5;exitY=0;exitDx=0;exitDy=0;endArrow=block;endFill=0;" edge="1" parent="1" source="hHeZnDOVjVbNeXcuj5v2-87">
          <mxGeometry relative="1" as="geometry">
            <mxPoint x="1080" y="730" as="targetPoint" />
            <Array as="points">
              <mxPoint x="1110" y="800" />
              <mxPoint x="1110" y="766" />
              <mxPoint x="1080" y="766" />
            </Array>
          </mxGeometry>
        </mxCell>
        <mxCell id="hHeZnDOVjVbNeXcuj5v2-87" value="Tarjeta" style="html=1;whiteSpace=wrap;" vertex="1" parent="1">
          <mxGeometry x="1080" y="800" width="110" height="50" as="geometry" />
        </mxCell>
        <mxCell id="hHeZnDOVjVbNeXcuj5v2-91" style="edgeStyle=orthogonalEdgeStyle;rounded=0;orthogonalLoop=1;jettySize=auto;html=1;exitX=0.5;exitY=0;exitDx=0;exitDy=0;entryX=0.653;entryY=1.074;entryDx=0;entryDy=0;entryPerimeter=0;endArrow=block;endFill=0;" edge="1" parent="1" source="hHeZnDOVjVbNeXcuj5v2-88" target="hHeZnDOVjVbNeXcuj5v2-84">
          <mxGeometry relative="1" as="geometry">
            <Array as="points">
              <mxPoint x="1240" y="800" />
              <mxPoint x="1240" y="750" />
              <mxPoint x="1112" y="750" />
            </Array>
          </mxGeometry>
        </mxCell>
        <mxCell id="hHeZnDOVjVbNeXcuj5v2-88" value="MercadoPago" style="html=1;whiteSpace=wrap;" vertex="1" parent="1">
          <mxGeometry x="1210" y="800" width="110" height="50" as="geometry" />
        </mxCell>
        <mxCell id="hHeZnDOVjVbNeXcuj5v2-92" value="1" style="text;html=1;align=center;verticalAlign=middle;resizable=0;points=[];autosize=1;strokeColor=none;fillColor=none;" vertex="1" parent="1">
          <mxGeometry x="1060" y="650" width="30" height="30" as="geometry" />
        </mxCell>
        <mxCell id="hHeZnDOVjVbNeXcuj5v2-93" value="1" style="text;html=1;align=center;verticalAlign=middle;resizable=0;points=[];autosize=1;strokeColor=none;fillColor=none;" vertex="1" parent="1">
          <mxGeometry x="1050" y="542" width="30" height="30" as="geometry" />
        </mxCell>
        <mxCell id="hHeZnDOVjVbNeXcuj5v2-97" value="1" style="text;html=1;align=center;verticalAlign=middle;resizable=0;points=[];autosize=1;strokeColor=none;fillColor=none;" vertex="1" parent="1">
          <mxGeometry x="1170" y="245" width="30" height="30" as="geometry" />
        </mxCell>
        <mxCell id="hHeZnDOVjVbNeXcuj5v2-99" value="ListadoDirecciones" style="html=1;whiteSpace=wrap;" vertex="1" parent="1">
          <mxGeometry x="660" y="275" width="110" height="50" as="geometry" />
        </mxCell>
        <mxCell id="hHeZnDOVjVbNeXcuj5v2-103" value="" style="edgeStyle=orthogonalEdgeStyle;rounded=0;orthogonalLoop=1;jettySize=auto;html=1;" edge="1" parent="1" source="hHeZnDOVjVbNeXcuj5v2-99" target="hHeZnDOVjVbNeXcuj5v2-102">
          <mxGeometry relative="1" as="geometry">
            <mxPoint x="715" y="458" as="targetPoint" />
            <mxPoint x="715" y="325" as="sourcePoint" />
          </mxGeometry>
        </mxCell>
        <mxCell id="hHeZnDOVjVbNeXcuj5v2-102" value="Direccion" style="html=1;whiteSpace=wrap;" vertex="1" parent="1">
          <mxGeometry x="660" y="425" width="110" height="50" as="geometry" />
        </mxCell>
        <mxCell id="hHeZnDOVjVbNeXcuj5v2-104" value="1" style="text;html=1;align=center;verticalAlign=middle;resizable=0;points=[];autosize=1;strokeColor=none;fillColor=none;" vertex="1" parent="1">
          <mxGeometry x="680" y="245" width="30" height="30" as="geometry" />
        </mxCell>
        <mxCell id="hHeZnDOVjVbNeXcuj5v2-105" value="1" style="text;html=1;align=center;verticalAlign=middle;resizable=0;points=[];autosize=1;strokeColor=none;fillColor=none;" vertex="1" parent="1">
          <mxGeometry x="1030" y="217" width="30" height="30" as="geometry" />
        </mxCell>
        <mxCell id="hHeZnDOVjVbNeXcuj5v2-106" value="1" style="text;html=1;align=center;verticalAlign=middle;resizable=0;points=[];autosize=1;strokeColor=none;fillColor=none;" vertex="1" parent="1">
          <mxGeometry x="680" y="325" width="30" height="30" as="geometry" />
        </mxCell>
        <mxCell id="hHeZnDOVjVbNeXcuj5v2-107" value="*" style="text;html=1;align=center;verticalAlign=middle;resizable=0;points=[];autosize=1;strokeColor=none;fillColor=none;" vertex="1" parent="1">
          <mxGeometry x="680" y="395" width="30" height="30" as="geometry" />
        </mxCell>
        <mxCell id="hHeZnDOVjVbNeXcuj5v2-111" value="Destino" style="html=1;whiteSpace=wrap;" vertex="1" parent="1">
          <mxGeometry x="410" y="630" width="110" height="50" as="geometry" />
        </mxCell>
        <mxCell id="hHeZnDOVjVbNeXcuj5v2-112" style="edgeStyle=orthogonalEdgeStyle;rounded=0;orthogonalLoop=1;jettySize=auto;html=1;entryX=0.5;entryY=0;entryDx=0;entryDy=0;" edge="1" parent="1" target="hHeZnDOVjVbNeXcuj5v2-111">
          <mxGeometry relative="1" as="geometry">
            <mxPoint x="970" y="520" as="sourcePoint" />
            <mxPoint x="445.31999999999994" y="615.3499999999999" as="targetPoint" />
          </mxGeometry>
        </mxCell>
        <mxCell id="hHeZnDOVjVbNeXcuj5v2-116" value="1" style="text;html=1;align=center;verticalAlign=middle;resizable=0;points=[];autosize=1;strokeColor=none;fillColor=none;" vertex="1" parent="1">
          <mxGeometry x="950" y="450" width="30" height="30" as="geometry" />
        </mxCell>
        <mxCell id="hHeZnDOVjVbNeXcuj5v2-117" value="Calificacion" style="html=1;whiteSpace=wrap;" vertex="1" parent="1">
          <mxGeometry x="740" y="630" width="110" height="50" as="geometry" />
        </mxCell>
        <mxCell id="hHeZnDOVjVbNeXcuj5v2-119" value="1" style="text;html=1;align=center;verticalAlign=middle;resizable=0;points=[];autosize=1;strokeColor=none;fillColor=none;" vertex="1" parent="1">
          <mxGeometry x="770" y="590" width="30" height="30" as="geometry" />
        </mxCell>
        <mxCell id="hHeZnDOVjVbNeXcuj5v2-120" value="1" style="text;html=1;align=center;verticalAlign=middle;resizable=0;points=[];autosize=1;strokeColor=none;fillColor=none;" vertex="1" parent="1">
          <mxGeometry x="940" y="520" width="30" height="30" as="geometry" />
        </mxCell>
        <mxCell id="hHeZnDOVjVbNeXcuj5v2-121" value="1" style="text;html=1;align=center;verticalAlign=middle;resizable=0;points=[];autosize=1;strokeColor=none;fillColor=none;" vertex="1" parent="1">
          <mxGeometry x="460" y="600" width="30" height="30" as="geometry" />
        </mxCell>
        <mxCell id="hHeZnDOVjVbNeXcuj5v2-123" value="1" style="text;html=1;align=center;verticalAlign=middle;resizable=0;points=[];autosize=1;strokeColor=none;fillColor=none;" vertex="1" parent="1">
          <mxGeometry x="1470" y="770" width="30" height="30" as="geometry" />
        </mxCell>
        <mxCell id="hHeZnDOVjVbNeXcuj5v2-124" value="1" style="text;html=1;align=center;verticalAlign=middle;resizable=0;points=[];autosize=1;strokeColor=none;fillColor=none;" vertex="1" parent="1">
          <mxGeometry x="1470" y="700" width="30" height="30" as="geometry" />
        </mxCell>
      </root>
    </mxGraphModel>
  </diagram>
</mxfile>
